{"title":"Jailbait 2013 UNRATED VODRip x264 AC3-AVeNGeRZ","uid":9538298,"size":685793396,"categoryP":"video","categoryS":"movies","magnet":"?xt=urn:btih:1ee312341a92515eb0170a1b94122f48b6cd8c1f&amp;dn=Jailbait+2013+UNRATED+VODRip+x264+AC3-AVeNGeRZ&amp;tr=udp%3A%2F%2Ftracker.openbittorrent.com%3A80&amp;tr=udp%3A%2F%2Fopen.demonii.com%3A1337&amp;tr=udp%3A%2F%2Ftracker.coppersurfer.tk%3A6969&amp;tr=udp%3A%2F%2Fexodus.desync.com%3A6969","seeders":11,"leechers":3,"uploader":"xxxlavalxxx","files":-1,"time":1390976839,"description":" &lt;a href=&quot;\nhttp://www.imdb.com/title/tt3290276/&quot; rel=&quot;nofollow&quot; target=&quot;_NEW&quot;&gt;\nhttp://www.imdb.com/title/tt3290276/&lt;/a&gt;\n\n\nA gritty coming of age thriller about a young girl sent to juvenile prison for the murder of her abusive step father. The film follows Anna Nix's journey into the dark world of an all girls...\n\nDirector: Jared Cohn\nWriters: Gabriel Campisi (comic book), Jared Cohn\nStars: Samantha Cardona, Sara Malakul Lane, Erin O'Brien\nGenres: Crime | Drama | Thriller\nCountry: USA\nLanguage: English\n\n\n\nSoURCE...............: NOT4YOU2KNOW :bow:\n\nGeneral\nComplete name                            : Jailbait 2013 UNRATED VODRip x264 AC3-AVeNGeRZ.mp4\nFormat                                   : MPEG-4\nFormat profile                           : Base Media\nCodec ID                                 : isom\nFile size                                : 621 MiB\nDuration                                 : 1h 30mn\nOverall bit rate mode                    : Variable\nOverall bit rate                         : 960 Kbps\nEncoded date                             : UTC 2014-01-26 00:45:48\nTagged date                              : UTC 2014-01-26 00:45:48\n\nVideo\nID                                       : 1\nFormat                                   : AVC\nFormat/Info                              : Advanced Video Codec\nFormat profile                           : &lt;a class=&quot;__cf_email__&quot; href=&quot;/cdn-cgi/l/email-protection&quot; data-cfemail=&quot;c78faea0af878bf3e9f6&quot;&gt;[email&amp;#160;protected]&lt;/a&gt;&lt;script cf-hash='f9e31' type=&quot;text/javascript&quot;&gt;\n/* &lt;![CDATA[ */!function(){try{var t=&quot;currentScript&quot;in document?document.currentScript:function(){for(var t=document.getElementsByTagName(&quot;script&quot;),e=t.length;e--;)if(t[e].getAttribute(&quot;cf-hash&quot;))return t[e]}();if(t&amp;&amp;t.previousSibling){var e,r,n,i,c=t.previousSibling,a=c.getAttribute(&quot;data-cfemail&quot;);if(a){for(e=&quot;&quot;,r=parseInt(a.substr(0,2),16),n=2;a.length-n;n+=2)i=parseInt(a.substr(n,2),16)^r,e+=String.fromCharCode(i);e=document.createTextNode(e),c.parentNode.replaceChild(e,c)}}}catch(u){}}();/* ]]&gt; */&lt;/script&gt;\nFormat settings, CABAC                   : Yes\nFormat settings, ReFrames                : 3 frames\nFormat settings, GOP                     : M=4, N=29\nCodec ID                                 : avc1\nCodec ID/Info                            : Advanced Video Coding\nDuration                                 : 1h 30mn\nBit rate mode                            : Variable\nBit rate                                 : 634 Kbps\nMaximum bit rate                         : 40.0 Mbps\nWidth                                    : 720 pixels\nHeight                                   : 384 pixels\nDisplay aspect ratio                     : 1.85:1\nFrame rate mode                          : Constant\nFrame rate                               : 29.970 fps\nColor space                              : YUV\nChroma subsampling                       : 4:2:0\nBit depth                                : 8 bits\nScan type                                : Progressive\nBits/(Pixel*Frame)                       : 0.076\nStream size                              : 410 MiB (66%)\nEncoded date                             : UTC 2014-01-27 00:44:55\nTagged date                              : UTC 2014-01-26 00:46:00\nColor primaries                          : BT.709\nTransfer characteristics                 : BT.709\nMatrix coefficients                      : BT.709\n\nAudio\nID                                       : 2\nFormat                                   : AAC\nFormat/Info                              : Advanced Audio Codec\nFormat profile                           : LC\nCodec ID                                 : 40\nDuration                                 : 1h 30mn\nBit rate mode                            : Variable\nBit rate                                 : 322 Kbps\nMaximum bit rate                         : 370 Kbps\nChannel(s)                               : 6 channels\nChannel positions                        : Front: L C R, Side: L R, LFE\nSampling rate                            : 48.0 KHz\nCompression mode                         : Lossy\nStream size                              : 208 MiB (34%)\nLanguage                                 : English\nEncoded date                             : UTC 2014-01-26 23:17:35\nTagged date                              : UTC 2014-01-26 00:46:00\n\n\n\nscreens\n &lt;a href=&quot;\nhttp://i.imgur.com/TgnMJzD.png&quot; rel=&quot;nofollow&quot; target=&quot;_NEW&quot;&gt;\nhttp://i.imgur.com/TgnMJzD.png&lt;/a&gt; &lt;a href=&quot;\nhttp://i.imgur.com/GrljOGb.png&quot; rel=&quot;nofollow&quot; target=&quot;_NEW&quot;&gt;\nhttp://i.imgur.com/GrljOGb.png&lt;/a&gt; &lt;a href=&quot;\nhttp://i.imgur.com/PncEZJy.png&quot; rel=&quot;nofollow&quot; target=&quot;_NEW&quot;&gt;\nhttp://i.imgur.com/PncEZJy.png&lt;/a&gt; &lt;a href=&quot;\nhttp://i.imgur.com/guR7I1o.png&quot; rel=&quot;nofollow&quot; target=&quot;_NEW&quot;&gt;\nhttp://i.imgur.com/guR7I1o.png&lt;/a&gt; &lt;a href=&quot;\nhttp://i.imgur.com/Oii4kU9.png&quot; rel=&quot;nofollow&quot; target=&quot;_NEW&quot;&gt;\nhttp://i.imgur.com/Oii4kU9.png&lt;/a&gt;","torrent":{"xt":"urn:btih:1ee312341a92515eb0170a1b94122f48b6cd8c1f","amp;dn":"Jailbait+2013+UNRATED+VODRip+x264+AC3-AVeNGeRZ","amp;tr":["udp%3A%2F%2Ftracker.openbittorrent.com%3A80","udp%3A%2F%2Fopen.demonii.com%3A1337","udp%3A%2F%2Ftracker.coppersurfer.tk%3A6969","udp%3A%2F%2Fexodus.desync.com%3A6969"],"infoHash":"1ee312341a92515eb0170a1b94122f48b6cd8c1f","infoHashBuffer":{"type":"Buffer","data":[30,227,18,52,26,146,81,94,176,23,10,27,148,18,47,72,182,205,140,31]},"announce":[],"urlList":[]}}